<svg width="179" height="66" viewBox="0 0 179 66" fill="none" xmlns="http://www.w3.org/2000/svg">
<g filter="url(#filter0_i_84_310)">
<path d="M132.351 55.8082C131.801 61.0126 129.644 64.6618 124.649 65.3724C120.693 65.9353 118.03 63.4347 116.564 59.9669C115.946 58.5051 115.941 56.7216 115.92 55.0809C115.844 49.2549 115.902 43.4272 115.867 37.6005C115.843 33.6127 114.843 30.2044 110.114 29.7164C106.146 29.307 102.895 32.4569 102.669 37.3553C102.393 43.3364 102.602 49.339 102.552 55.3319C102.5 61.4552 99.355 65.4368 94.5866 65.5086C90.0788 65.5766 86.2193 61.3074 86.0367 55.6137C85.8393 49.4596 85.9155 43.2951 85.9535 37.1356C85.9765 33.4037 84.8395 30.3843 80.7901 29.7951C76.5887 29.1837 74.4066 31.5968 73.4107 35.5283C71.7432 42.1108 72.8438 48.7798 72.6091 55.403C72.385 61.7297 69.6315 65.4892 64.7925 65.5073C59.9441 65.5255 56.9126 61.7166 56.891 55.4364C56.8589 46.1134 57.0275 36.7873 56.8346 27.4682C56.7398 22.8925 57.4928 19.0521 62.447 17.6489C67.2424 16.2907 69.7371 19.5379 72.2169 23.176C76.3562 19.3758 80.9836 16.7363 86.8583 16.9847C92.6941 17.2314 97.4165 19.427 100.886 24.9475C104.797 19.9955 109.342 17.0069 115.486 16.9839C126.293 16.9434 132.171 23.3512 132.409 35.8847C132.532 42.3749 132.396 48.87 132.351 55.8082Z" fill="#FFFFF3"/>
</g>
<g filter="url(#filter1_i_84_310)">
<path d="M33.757 5.8252C34.6834 4.61295 35.2669 3.57355 36.0671 2.7428C38.9856 -0.287503 42.336 -0.94302 45.923 1.46219C48.9288 3.47769 49.5909 7.92014 47.1921 11.2181C43.9659 15.6538 40.6381 20.0447 37.0003 24.1407C34.8935 26.5127 35.1522 28.2868 36.7237 30.6694C41.2099 37.4708 45.5754 44.3533 49.9035 51.2571C51.9754 54.5621 52.5574 58.2002 50.4889 61.6412C47.3337 66.8902 40.6179 66.8565 36.7622 61.4539C33.5791 56.9938 30.9296 52.1558 27.9658 47.5352C26.5562 45.3377 25.5939 42.782 23.1856 41.0762C17.8418 44.9814 15.9937 50.0876 16.4548 56.5944C16.8061 61.5514 13.6789 64.9969 9.53041 65.5024C5.45985 65.9986 1.30275 62.6756 0.255477 58.0605C0.109114 57.4156 0.0199426 56.7423 0.0192096 56.0821C0.00205963 40.5954 -0.0191506 25.1086 0.0326984 9.62204C0.0370324 8.32804 0.447066 7.00141 0.851454 5.74894C2.22661 1.49024 5.32179 -0.475521 9.64171 0.114841C13.987 0.708652 16.436 3.51261 16.5264 7.94962C16.6472 13.8828 16.5563 19.8202 17.6993 26.2286C22.9707 19.517 28.2421 12.8054 33.757 5.8252Z" fill="#FFFFF3"/>
</g>
<g filter="url(#filter2_i_84_310)">
<path d="M140.295 31.7964C140.797 31.5055 140.947 31.4298 141.104 31.3762C144.284 30.2906 148.2 32.3787 150.766 30.125C153.317 27.8847 151.322 24.0815 152.019 21.0528C152.702 18.0884 155.632 17.2072 158.5 17C163.332 18 163.683 22.0047 164 24.5C165 32.3762 161.574 30.6652 172 31.3762C175.5 31 178.574 34.0832 178.436 36.9713C178.301 39.8045 176.529 41.5512 173.995 42.3762C172.774 42.7736 171.33 42.769 170.033 42.5964C165.537 41.998 163.97 44.0013 164.469 48.2958C164.72 50.454 164.489 52.6314 163.332 54.5803C161.827 57.1153 159.73 58.3842 156.679 57.7811C153.833 57.2185 152.457 55.3971 151.964 52.6779C151.411 49.6206 153.244 45.9227 150.822 43.5652C148.592 41.3939 145.047 43.088 142.145 42.5202C137.404 41.5923 136.38 36.652 140.295 31.7964Z" fill="#FFFFF3"/>
</g>
<defs>
<filter id="filter0_i_84_310" x="56.8271" y="16.9685" width="75.6318" height="54.5409" filterUnits="userSpaceOnUse" color-interpolation-filters="sRGB">
<feFlood flood-opacity="0" result="BackgroundImageFix"/>
<feBlend mode="normal" in="SourceGraphic" in2="BackgroundImageFix" result="shape"/>
<feColorMatrix in="SourceAlpha" type="matrix" values="0 0 0 0 0 0 0 0 0 0 0 0 0 0 0 0 0 0 127 0" result="hardAlpha"/>
<feOffset dy="6"/>
<feGaussianBlur stdDeviation="3.5"/>
<feComposite in2="hardAlpha" operator="arithmetic" k2="-1" k3="1"/>
<feColorMatrix type="matrix" values="0 0 0 0 0 0 0 0 0 0 0 0 0 0 0 0 0 0 0.25 0"/>
<feBlend mode="normal" in2="shape" result="effect1_innerShadow_84_310"/>
</filter>
<filter id="filter1_i_84_310" x="0" y="0" width="51.7793" height="71.5515" filterUnits="userSpaceOnUse" color-interpolation-filters="sRGB">
<feFlood flood-opacity="0" result="BackgroundImageFix"/>
<feBlend mode="normal" in="SourceGraphic" in2="BackgroundImageFix" result="shape"/>
<feColorMatrix in="SourceAlpha" type="matrix" values="0 0 0 0 0 0 0 0 0 0 0 0 0 0 0 0 0 0 127 0" result="hardAlpha"/>
<feOffset dy="6"/>
<feGaussianBlur stdDeviation="3.5"/>
<feComposite in2="hardAlpha" operator="arithmetic" k2="-1" k3="1"/>
<feColorMatrix type="matrix" values="0 0 0 0 0 0 0 0 0 0 0 0 0 0 0 0 0 0 0.25 0"/>
<feBlend mode="normal" in2="shape" result="effect1_innerShadow_84_310"/>
</filter>
<filter id="filter2_i_84_310" x="137.885" y="17" width="40.5553" height="46.9294" filterUnits="userSpaceOnUse" color-interpolation-filters="sRGB">
<feFlood flood-opacity="0" result="BackgroundImageFix"/>
<feBlend mode="normal" in="SourceGraphic" in2="BackgroundImageFix" result="shape"/>
<feColorMatrix in="SourceAlpha" type="matrix" values="0 0 0 0 0 0 0 0 0 0 0 0 0 0 0 0 0 0 127 0" result="hardAlpha"/>
<feOffset dy="6"/>
<feGaussianBlur stdDeviation="3.5"/>
<feComposite in2="hardAlpha" operator="arithmetic" k2="-1" k3="1"/>
<feColorMatrix type="matrix" values="0 0 0 0 0 0 0 0 0 0 0 0 0 0 0 0 0 0 0.25 0"/>
<feBlend mode="normal" in2="shape" result="effect1_innerShadow_84_310"/>
</filter>
</defs>
</svg>
