<svg width="34" height="36" viewBox="0 0 34 36" fill="none" xmlns="http://www.w3.org/2000/svg">
<g filter="url(#filter0_d_29_182)">
<path fill-rule="evenodd" clip-rule="evenodd" d="M13.7476 12.5883V17.755C13.7476 18.9498 14.3519 20.1084 15.5016 21.0035C16.8687 22.0679 19.0675 22.7925 21.556 22.7925C24.0445 22.7925 26.2433 22.0679 27.6104 21.0035C28.7602 20.1084 29.3645 18.9498 29.3645 17.755V12.5883C29.3645 11.9464 28.9084 11.4258 28.346 11.4258C27.7835 11.4258 27.3275 11.9464 27.3275 12.5883V17.755C27.3275 18.273 26.9608 18.6953 26.4618 19.0828C25.3573 19.9431 23.567 20.4675 21.556 20.4675C19.545 20.4675 17.7548 19.9431 16.6503 19.0828C16.1512 18.6953 15.7845 18.273 15.7845 17.755V12.5883C15.7845 11.9464 15.3285 11.4258 14.7661 11.4258C14.2036 11.4258 13.7476 11.9464 13.7476 12.5883Z" fill="white"/>
</g>
<g filter="url(#filter1_d_29_182)">
<path fill-rule="evenodd" clip-rule="evenodd" d="M13.7476 17.755V22.9217C13.7476 24.1165 14.3519 25.2751 15.5016 26.1702C16.8687 27.2345 19.0675 27.9592 21.556 27.9592C24.0445 27.9592 26.2433 27.2345 27.6104 26.1702C28.7602 25.2751 29.3645 24.1165 29.3645 22.9217V17.755C29.3645 17.113 28.9084 16.5925 28.346 16.5925C27.7835 16.5925 27.3275 17.113 27.3275 17.755V22.9217C27.3275 23.4396 26.9608 23.862 26.4618 24.2495C25.3573 25.1097 23.567 25.6342 21.556 25.6342C19.545 25.6342 17.7548 25.1097 16.6503 24.2495C16.1512 23.862 15.7845 23.4396 15.7845 22.9217V17.755C15.7845 17.113 15.3285 16.5925 14.7661 16.5925C14.2036 16.5925 13.7476 17.113 13.7476 17.755Z" fill="white"/>
</g>
<g filter="url(#filter2_d_29_182)">
<path fill-rule="evenodd" clip-rule="evenodd" d="M21.556 7.55084C19.0686 7.55084 16.8698 8.27547 15.5028 9.3398C14.353 10.2349 13.7476 11.3935 13.7476 12.5883C13.7476 13.7831 14.353 14.9418 15.5028 15.8369C16.8698 16.9012 19.0686 17.6258 21.556 17.6258C24.0434 17.6258 26.2422 16.9012 27.6093 15.8369C28.759 14.9418 29.3645 13.7831 29.3645 12.5883C29.3645 11.3935 28.759 10.2349 27.6093 9.3398C26.2422 8.27547 24.0434 7.55084 21.556 7.55084ZM21.556 9.87584C23.5658 9.87584 25.3561 10.4016 26.4618 11.2605C26.9608 11.6493 27.3275 12.0704 27.3275 12.5883C27.3275 13.1063 26.9608 13.5274 26.4618 13.9162C25.3561 14.7751 23.5658 15.3008 21.556 15.3008C19.5462 15.3008 17.7559 14.7751 16.6503 13.9162C16.1512 13.5274 15.7845 13.1063 15.7845 12.5883C15.7845 12.0704 16.1512 11.6493 16.6503 11.2605C17.7559 10.4016 19.5462 9.87584 21.556 9.87584Z" fill="white"/>
</g>
<g filter="url(#filter3_d_29_182)">
<path fill-rule="evenodd" clip-rule="evenodd" d="M4.69434 5.45834V10.625C4.69434 11.6015 5.08928 12.5418 5.85655 13.3414C6.76301 14.2869 8.24322 15.0541 10.0437 15.421C10.5971 15.5333 11.1256 15.1123 11.2251 14.4806C11.3236 13.8477 10.9535 13.2445 10.4002 13.1321C9.25266 12.8983 8.26246 12.4824 7.56422 11.927C7.08327 11.546 6.73132 11.1313 6.73132 10.625V5.45834C6.73132 4.81638 6.27526 4.29584 5.71283 4.29584C5.15039 4.29584 4.69434 4.81638 4.69434 5.45834Z" fill="white"/>
</g>
<g filter="url(#filter4_d_29_182)">
<path fill-rule="evenodd" clip-rule="evenodd" d="M4.69434 10.625V15.7917C4.69434 16.8831 5.1934 17.9384 6.15418 18.7948C7.28923 19.8075 9.13044 20.5657 11.2908 20.7723C11.851 20.8253 12.3432 20.35 12.3896 19.7106C12.4371 19.0712 12.0207 18.508 11.4605 18.4551C9.76304 18.2936 8.2998 17.7576 7.40692 16.9619C7.01537 16.6132 6.73132 16.2373 6.73132 15.7917V10.625C6.73132 9.98304 6.27526 9.4625 5.71283 9.4625C5.15039 9.4625 4.69434 9.98304 4.69434 10.625ZM11.4469 8.12046C9.75512 7.95642 8.29528 7.42038 7.40579 6.626C7.01424 6.27725 6.73132 5.90267 6.73132 5.45834C6.73132 4.94038 7.09798 4.5193 7.59704 4.1305C8.70267 3.27155 10.493 2.74584 12.5028 2.74584C14.5126 2.74584 16.3029 3.27155 17.4085 4.1305C17.9076 4.5193 18.2743 4.94038 18.2743 5.45834C18.2743 6.1003 18.7303 6.62084 19.2927 6.62084C19.8552 6.62084 20.3112 6.1003 20.3112 5.45834C20.3112 4.26355 19.7058 3.10492 18.556 2.20979C17.189 1.14546 14.9902 0.420837 12.5028 0.420837C10.0154 0.420837 7.81658 1.14546 6.44954 2.20979C5.29977 3.10492 4.69434 4.26355 4.69434 5.45834C4.69434 6.5485 5.19227 7.6025 6.15078 8.45759C7.28357 9.46896 9.12139 10.2285 11.2749 10.4364C11.8351 10.4907 12.3285 10.0166 12.376 9.37725C12.4236 8.73788 12.0071 8.17471 11.4469 8.12046Z" fill="white"/>
</g>
<defs>
<filter id="filter0_d_29_182" x="9.74756" y="11.4258" width="23.6167" height="19.3667" filterUnits="userSpaceOnUse" color-interpolation-filters="sRGB">
<feFlood flood-opacity="0" result="BackgroundImageFix"/>
<feColorMatrix in="SourceAlpha" type="matrix" values="0 0 0 0 0 0 0 0 0 0 0 0 0 0 0 0 0 0 127 0" result="hardAlpha"/>
<feOffset dy="4"/>
<feGaussianBlur stdDeviation="2"/>
<feComposite in2="hardAlpha" operator="out"/>
<feColorMatrix type="matrix" values="0 0 0 0 0 0 0 0 0 0 0 0 0 0 0 0 0 0 0.25 0"/>
<feBlend mode="normal" in2="BackgroundImageFix" result="effect1_dropShadow_29_182"/>
<feBlend mode="normal" in="SourceGraphic" in2="effect1_dropShadow_29_182" result="shape"/>
</filter>
<filter id="filter1_d_29_182" x="9.74756" y="16.5925" width="23.6167" height="19.3667" filterUnits="userSpaceOnUse" color-interpolation-filters="sRGB">
<feFlood flood-opacity="0" result="BackgroundImageFix"/>
<feColorMatrix in="SourceAlpha" type="matrix" values="0 0 0 0 0 0 0 0 0 0 0 0 0 0 0 0 0 0 127 0" result="hardAlpha"/>
<feOffset dy="4"/>
<feGaussianBlur stdDeviation="2"/>
<feComposite in2="hardAlpha" operator="out"/>
<feColorMatrix type="matrix" values="0 0 0 0 0 0 0 0 0 0 0 0 0 0 0 0 0 0 0.25 0"/>
<feBlend mode="normal" in2="BackgroundImageFix" result="effect1_dropShadow_29_182"/>
<feBlend mode="normal" in="SourceGraphic" in2="effect1_dropShadow_29_182" result="shape"/>
</filter>
<filter id="filter2_d_29_182" x="9.74756" y="7.55084" width="23.6167" height="18.075" filterUnits="userSpaceOnUse" color-interpolation-filters="sRGB">
<feFlood flood-opacity="0" result="BackgroundImageFix"/>
<feColorMatrix in="SourceAlpha" type="matrix" values="0 0 0 0 0 0 0 0 0 0 0 0 0 0 0 0 0 0 127 0" result="hardAlpha"/>
<feOffset dy="4"/>
<feGaussianBlur stdDeviation="2"/>
<feComposite in2="hardAlpha" operator="out"/>
<feColorMatrix type="matrix" values="0 0 0 0 0 0 0 0 0 0 0 0 0 0 0 0 0 0 0.25 0"/>
<feBlend mode="normal" in2="BackgroundImageFix" result="effect1_dropShadow_29_182"/>
<feBlend mode="normal" in="SourceGraphic" in2="effect1_dropShadow_29_182" result="shape"/>
</filter>
<filter id="filter3_d_29_182" x="0.694336" y="4.29584" width="14.5469" height="19.1433" filterUnits="userSpaceOnUse" color-interpolation-filters="sRGB">
<feFlood flood-opacity="0" result="BackgroundImageFix"/>
<feColorMatrix in="SourceAlpha" type="matrix" values="0 0 0 0 0 0 0 0 0 0 0 0 0 0 0 0 0 0 127 0" result="hardAlpha"/>
<feOffset dy="4"/>
<feGaussianBlur stdDeviation="2"/>
<feComposite in2="hardAlpha" operator="out"/>
<feColorMatrix type="matrix" values="0 0 0 0 0 0 0 0 0 0 0 0 0 0 0 0 0 0 0.25 0"/>
<feBlend mode="normal" in2="BackgroundImageFix" result="effect1_dropShadow_29_182"/>
<feBlend mode="normal" in="SourceGraphic" in2="effect1_dropShadow_29_182" result="shape"/>
</filter>
<filter id="filter4_d_29_182" x="0.694336" y="0.420837" width="23.6167" height="28.3555" filterUnits="userSpaceOnUse" color-interpolation-filters="sRGB">
<feFlood flood-opacity="0" result="BackgroundImageFix"/>
<feColorMatrix in="SourceAlpha" type="matrix" values="0 0 0 0 0 0 0 0 0 0 0 0 0 0 0 0 0 0 127 0" result="hardAlpha"/>
<feOffset dy="4"/>
<feGaussianBlur stdDeviation="2"/>
<feComposite in2="hardAlpha" operator="out"/>
<feColorMatrix type="matrix" values="0 0 0 0 0 0 0 0 0 0 0 0 0 0 0 0 0 0 0.25 0"/>
<feBlend mode="normal" in2="BackgroundImageFix" result="effect1_dropShadow_29_182"/>
<feBlend mode="normal" in="SourceGraphic" in2="effect1_dropShadow_29_182" result="shape"/>
</filter>
</defs>
</svg>
