<?xml version="1.0" standalone="no"?>
<!DOCTYPE svg PUBLIC "-//W3C//DTD SVG 20010904//EN"
 "http://www.w3.org/TR/2001/REC-SVG-20010904/DTD/svg10.dtd">
<svg version="1.0" xmlns="http://www.w3.org/2000/svg"
 width="512.000000pt" height="512.000000pt" viewBox="0 0 512.000000 512.000000"
 preserveAspectRatio="xMidYMid meet">

<g transform="translate(0.000000,512.000000) scale(0.100000,-0.100000)"
fill="#000000" stroke="none">
<path d="M1615 4786 c-37 -16 -70 -52 -84 -89 -8 -20 -11 -582 -11 -1844 l0
-1815 22 -40 c63 -111 222 -108 277 6 21 41 21 56 21 661 l0 618 48 -7 c324
-46 549 -27 1176 100 594 120 841 131 1144 53 124 -32 163 -30 214 11 61 47
58 2 58 1002 0 870 -1 915 -19 948 -25 49 -67 74 -163 100 -177 48 -232 54
-483 54 -283 0 -327 -5 -830 -104 -192 -38 -402 -77 -465 -87 -145 -22 -476
-24 -597 -4 l-82 13 -3 167 c-3 167 -3 168 -32 205 -46 61 -123 82 -191 52z
m2483 -577 l62 -11 0 -80 0 -80 -32 8 c-18 4 -88 7 -155 7 l-123 0 0 90 0 90
93 -6 c50 -4 120 -12 155 -18z m-1128 -169 c0 -81 -2 -82 -100 -94 -30 -4
-111 -16 -180 -26 -69 -10 -147 -21 -173 -24 l-48 -6 3 67 3 67 145 22 c80 13
188 32 240 42 52 11 98 20 103 21 4 0 7 -31 7 -69z m688 -312 l-3 -123 -155
-17 c-85 -9 -186 -22 -225 -27 -126 -19 -115 -29 -115 109 0 116 1 120 23 125
32 7 304 44 357 48 25 2 62 4 83 5 l38 2 -3 -122z m-1588 -59 l210 1 0 -119 0
-118 -127 -7 c-72 -4 -165 -2 -213 4 -47 5 -88 10 -92 10 -5 0 -8 54 -8 121 0
78 4 118 10 114 6 -3 105 -6 220 -6z m2053 -255 l37 -7 0 -106 0 -107 -155 -1
-155 -2 0 115 0 114 118 0 c64 0 134 -3 155 -6z m-1155 -211 l-3 -108 -40 -7
c-92 -17 -315 -48 -382 -54 l-73 -7 0 111 0 110 68 7 c59 5 201 25 332 45 25
4 58 8 73 9 l28 1 -3 -107z m687 -313 l0 -94 -135 -17 c-135 -17 -309 -45
-342 -55 -16 -5 -18 4 -18 96 0 71 4 102 13 105 34 12 444 64 472 60 6 -1 10
-41 10 -95z m-1770 -77 c17 -1 112 -2 213 -3 l182 -1 0 -114 0 -115 -26 -6
c-45 -11 -329 12 -396 32 -16 5 -18 19 -17 122 0 64 3 110 7 102 4 -8 21 -16
37 -17z"/>
<path d="M944 1609 c-64 -41 -170 -152 -213 -223 -52 -87 -82 -181 -88 -273
-8 -110 9 -189 64 -302 160 -333 642 -536 1140 -480 273 30 519 140 678 303
78 80 125 153 163 254 22 58 26 82 26 187 0 105 -4 129 -26 187 -37 97 -84
171 -158 248 -82 85 -151 130 -201 130 -108 0 -180 -82 -164 -187 6 -41 16
-54 92 -127 109 -104 137 -156 137 -251 0 -90 -28 -149 -106 -226 -201 -198
-628 -265 -958 -151 -222 77 -370 228 -370 376 0 86 26 134 126 233 100 100
122 141 110 207 -4 19 -18 49 -33 66 -58 69 -138 80 -219 29z"/>
</g>
</svg>
