<?xml version="1.0" standalone="no"?>
<!DOCTYPE svg PUBLIC "-//W3C//DTD SVG 20010904//EN"
 "http://www.w3.org/TR/2001/REC-SVG-20010904/DTD/svg10.dtd">
<svg version="1.0" xmlns="http://www.w3.org/2000/svg"
 width="512.000000pt" height="512.000000pt" viewBox="0 0 512.000000 512.000000"
 preserveAspectRatio="xMidYMid meet">

<g transform="translate(0.000000,512.000000) scale(0.100000,-0.100000)"
fill="#000000" stroke="none">
<path d="M1615 4786 c-37 -16 -70 -52 -84 -89 -8 -20 -11 -582 -11 -1844 l0
-1815 22 -40 c63 -111 222 -108 277 6 21 41 21 56 21 661 l0 618 48 -7 c324
-46 549 -27 1176 100 594 120 841 131 1144 53 124 -32 163 -30 214 11 61 47
58 2 58 1002 0 870 -1 915 -19 948 -25 49 -67 74 -163 100 -177 48 -232 54
-483 54 -283 0 -327 -5 -830 -104 -192 -38 -402 -77 -465 -87 -145 -22 -476
-24 -597 -4 l-82 13 -3 167 c-3 167 -3 168 -32 205 -46 61 -123 82 -191 52z
m2483 -576 l62 -12 0 -715 0 -715 -22 5 c-69 17 -268 29 -402 23 -193 -8 -352
-31 -781 -116 -192 -37 -406 -76 -475 -86 -199 -27 -513 -21 -622 12 -17 5
-18 48 -18 718 l0 713 48 -10 c26 -6 159 -11 297 -11 291 0 349 7 860 109 277
55 432 82 575 99 69 8 416 -2 478 -14z"/>
<path d="M2550 3813 c-39 -14 -40 -25 -40 -425 0 -445 0 -448 69 -448 36 0 61
8 156 50 22 9 99 43 170 74 72 31 144 63 160 71 17 7 93 41 170 75 77 33 149
65 160 70 11 5 50 23 88 39 37 16 70 37 73 46 9 23 -24 55 -86 82 -30 13 -64
28 -75 33 -11 5 -83 36 -160 70 -77 33 -153 67 -170 75 -16 7 -88 39 -160 71
-71 31 -148 65 -170 74 -116 51 -144 58 -185 43z"/>
<path d="M944 1609 c-64 -41 -170 -152 -213 -223 -52 -87 -82 -181 -88 -273
-8 -110 9 -189 64 -302 160 -333 642 -536 1140 -480 273 30 519 140 678 303
78 80 125 153 163 254 22 58 26 82 26 187 0 105 -4 129 -26 187 -37 97 -84
171 -158 248 -82 85 -151 130 -201 130 -108 0 -180 -82 -164 -187 6 -41 16
-54 92 -127 109 -104 137 -156 137 -251 0 -90 -28 -149 -106 -226 -201 -198
-628 -265 -958 -151 -222 77 -370 228 -370 376 0 86 26 134 126 233 100 100
122 141 110 207 -4 19 -18 49 -33 66 -58 69 -138 80 -219 29z"/>
</g>
</svg>
