<svg width="284" height="368" viewBox="0 0 284 368" fill="none" xmlns="http://www.w3.org/2000/svg">
<g filter="url(#filter0_i_78_288)">
<g filter="url(#filter1_i_78_288)">
<path fill-rule="evenodd" clip-rule="evenodd" d="M284 142C284 170.464 275.625 196.972 261.205 219.195C260.974 219.196 260.739 219.2 260.5 219.205C257.959 219.19 252.517 219.199 246.825 219.209H246.817H246.816H246.815C240.043 219.22 232.917 219.233 229.894 219.205C229.595 219.202 229.292 219.222 228.985 219.243H228.984H228.984C228.045 219.306 227.065 219.372 226.044 218.791C226.347 218.589 226.643 218.391 226.934 218.196L227.332 217.93C228.2 217.348 229.027 216.793 229.861 216.25C251.526 202.118 258.853 175.886 246.751 152.934C231.389 123.797 191.727 117.928 168.479 142.741C166.537 144.814 165.33 144.724 163.33 143.245C161.547 141.925 159.714 140.671 157.881 139.418C156.082 138.187 154.282 136.956 152.529 135.662C150.927 134.48 149.28 133.357 147.605 132.215L147.605 132.215C144.269 129.94 140.824 127.591 137.404 124.552L145.213 123.813L145.287 123.806C150.868 123.277 156.189 122.773 161.511 122.27C164.355 122.001 167.2 121.746 170.046 121.49L170.047 121.49L170.048 121.49C176.748 120.888 183.449 120.286 190.129 119.512C195.777 118.857 199.228 115.633 200.225 110.937C201.349 105.645 199.517 101.461 194.544 98.2843C189.448 95.0288 184.325 91.8143 179.203 88.5999C177.85 87.7512 176.498 86.9025 175.146 86.053C173.256 84.8658 171.37 83.6729 169.484 82.48L169.477 82.4756C164.316 79.2119 159.155 75.9481 153.925 72.8C150.255 70.5911 145.636 71.736 143.8 74.936C141.908 78.2332 142.952 81.1612 147.096 83.8209C150.873 86.2457 154.67 88.6392 158.468 91.0327L158.47 91.0339C160.248 92.1548 162.027 93.2758 163.803 94.3999C168.07 97.0999 172.335 99.8013 176.585 102.493L176.641 102.528L182.128 106.003C181.458 107.711 180.321 107.809 179.139 107.881C178.197 107.938 177.255 107.992 176.312 108.046L176.307 108.046C173.449 108.21 170.591 108.374 167.74 108.627C155.116 109.75 142.496 110.918 129.878 112.098C123.037 112.738 118.218 118.23 119.102 124.442C119.684 128.535 122.368 131.217 125.587 133.471C136.59 141.176 147.59 148.883 158.724 156.777C158.598 157.347 158.472 157.915 158.346 158.482C156.871 165.111 155.43 171.582 155.861 178.401C156.549 189.318 160.392 198.857 167.481 207.103C171.484 211.76 176.321 215.476 181.539 218.928C180.124 219.226 178.782 219.226 177.44 219.227H177.429C175.262 219.228 173.095 219.226 170.929 219.224H170.923C165.438 219.218 159.953 219.213 154.468 219.253C151.635 219.274 149.288 220.377 147.832 222.951C146.398 225.484 146.94 227.925 148.464 230.139C150.162 232.607 152.826 232.897 155.581 232.896C175.76 232.884 195.939 232.885 216.118 232.886H216.189C221.614 232.886 227.04 232.886 232.465 232.886C233.867 232.886 235.814 232.889 237.984 232.892H237.992H238.002H238.015C242.343 232.897 247.552 232.904 251.102 232.894C225.054 264.126 185.848 284 142 284C63.5756 284 0 220.424 0 142C0 63.5756 63.5756 0 142 0C220.424 0 284 63.5756 284 142ZM197.361 166.76C197.895 167.135 198.432 167.507 198.968 167.878L198.969 167.878C200.149 168.695 201.328 169.511 202.478 170.368C206.444 173.322 207.304 177.002 204.911 180.559C202.651 183.921 198.454 184.463 194.478 181.786C192.191 180.247 189.939 178.657 187.686 177.067L187.685 177.066C186.339 176.117 184.993 175.167 183.641 174.228C180.819 172.27 177.989 170.322 175.138 168.359C173.889 167.499 172.636 166.637 171.377 165.769C166.542 177.874 170.807 198.355 190.209 207.21C207.018 214.882 227.261 207.046 235.325 189.868C243.089 173.329 235.824 152.676 219.463 144.78C205.039 137.819 184.336 142.081 178.621 153.545C184.691 157.826 190.822 162.15 197.361 166.76ZM21.9342 112.704C30.802 139.007 60.8446 152.709 87.2635 141.009C102.173 133.956 111.315 122.564 114.983 106.771C115.944 102.632 115.06 99.7794 112.324 98.2044C107.595 95.483 102.847 97.947 101.627 103.828C98.0678 120.988 82.4189 134.02 62.459 131.422C44.9519 129.144 32.6111 113.833 32.9947 95.7238C33.3801 77.5325 48.6466 62.5401 66.7928 62.4035C74.1954 62.3478 80.9735 64.125 87.0966 68.3503L87.1611 68.3948C89.2361 69.8268 91.3811 71.3073 94.1418 70.5344C96.8168 69.7855 98.617 68.0358 99.1845 65.3141C99.8836 61.9613 98.4186 59.4704 95.6508 57.6442C84.8006 50.4848 73.0704 47.3832 60.0275 49.3573C31.0256 53.7469 11.9863 83.1971 21.9342 112.704ZM48.3823 89.0357C46.8534 85.1447 47.4313 82.3278 50.1613 80.5022C52.9571 78.6327 55.6531 78.7624 58.4815 80.8324C63.6021 84.58 67.4021 89.494 71.2105 94.419L71.2106 94.4191C71.3471 94.5956 71.4836 94.7721 71.6201 94.9486C71.7117 95.0669 71.8033 95.1852 71.895 95.3035C72.0189 95.4634 72.1376 95.628 72.2585 95.7958L72.2586 95.7959C72.8892 96.6704 73.5806 97.6293 75.3949 98.4525C76.2697 97.5079 77.1481 96.5202 78.0413 95.516C80.026 93.2844 82.0836 90.9709 84.3366 88.8663C101.212 73.1025 120.829 61.5912 141.839 52.3042C142.038 52.2162 142.237 52.128 142.436 52.0399L142.904 51.8328L142.904 51.8327C148.371 49.4131 153.846 46.9897 159.562 45.2043C163.822 43.8734 167.293 45.8866 168.36 50.0768C169.234 53.5112 167.401 56.6274 163.016 58.1643C155.676 60.7368 148.611 63.911 141.593 67.2225C121.108 76.8886 102.265 88.915 86.5643 105.454C85.7181 106.345 84.9083 107.272 84.0987 108.199L84.0986 108.199C83.0032 109.453 81.9082 110.707 80.7239 111.871C76.591 115.933 69.9646 115.875 66.687 111.107C61.2822 103.246 55.3138 95.9359 48.3823 89.0357ZM184.244 83.3143C184.371 83.4125 184.503 83.5152 184.642 83.6243C186.551 84.9281 188.433 86.2223 190.301 87.5064C194.031 90.0712 197.703 92.5957 201.404 95.0767C204.421 97.0988 208.587 96.4131 210.584 93.7299C212.808 90.7425 212.526 87.662 209.433 85.0017C207.472 83.3156 205.31 81.855 203.157 80.4006C202.854 80.1965 202.553 79.9927 202.251 79.7883C201.569 79.3254 200.889 78.8603 200.208 78.3952C196.996 76.2014 193.781 74.0059 190.439 72.0285C187.231 70.1305 183.952 70.9402 181.956 73.637C179.917 76.3931 180.264 79.5054 182.938 82.2148C183.307 82.5894 183.727 82.9145 184.244 83.3143Z" fill="#FFFFF3"/>
</g>
</g>
<g filter="url(#filter2_i_78_288)">
<path d="M185.351 357.808C184.801 363.013 182.644 366.662 177.649 367.372C173.693 367.935 171.03 365.435 169.564 361.967C168.946 360.505 168.941 358.722 168.92 357.081C168.844 351.255 168.902 345.427 168.867 339.6C168.843 335.613 167.843 332.204 163.114 331.716C159.146 331.307 155.895 334.457 155.669 339.355C155.393 345.336 155.602 351.339 155.552 357.332C155.5 363.455 152.355 367.437 147.587 367.509C143.079 367.577 139.219 363.307 139.037 357.614C138.839 351.46 138.915 345.295 138.953 339.136C138.977 335.404 137.839 332.384 133.79 331.795C129.589 331.184 127.407 333.597 126.411 337.528C124.743 344.111 125.844 350.78 125.609 357.403C125.385 363.73 122.632 367.489 117.793 367.507C112.944 367.525 109.913 363.717 109.891 357.436C109.859 348.113 110.027 338.787 109.835 329.468C109.74 324.893 110.493 321.052 115.447 319.649C120.242 318.291 122.737 321.538 125.217 325.176C129.356 321.376 133.984 318.736 139.858 318.985C145.694 319.231 150.417 321.427 153.886 326.948C157.797 321.996 162.342 319.007 168.486 318.984C179.293 318.943 185.171 325.351 185.409 337.885C185.532 344.375 185.396 350.87 185.351 357.808Z" fill="#FFFFF3"/>
</g>
<g filter="url(#filter3_i_78_288)">
<path d="M86.757 307.825C87.6834 306.613 88.2669 305.574 89.0671 304.743C91.9856 301.712 95.336 301.057 98.923 303.462C101.929 305.478 102.591 309.92 100.192 313.218C96.9659 317.654 93.6381 322.045 90.0003 326.141C87.8935 328.513 88.1522 330.287 89.7237 332.669C94.2099 339.471 98.5754 346.353 102.904 353.257C104.975 356.562 105.557 360.2 103.489 363.641C100.334 368.89 93.6179 368.857 89.7622 363.454C86.5791 358.994 83.9296 354.156 80.9658 349.535C79.5562 347.338 78.5939 344.782 76.1856 343.076C70.8418 346.981 68.9937 352.088 69.4548 358.594C69.8061 363.551 66.6789 366.997 62.5304 367.502C58.4599 367.999 54.3027 364.676 53.2555 360.06C53.1091 359.416 53.0199 358.742 53.0192 358.082C53.0021 342.595 52.9808 327.109 53.0327 311.622C53.037 310.328 53.4471 309.001 53.8515 307.749C55.2266 303.49 58.3218 301.524 62.6417 302.115C66.987 302.709 69.436 305.513 69.5264 309.95C69.6472 315.883 69.5563 321.82 70.6993 328.229C75.9707 321.517 81.2421 314.805 86.757 307.825Z" fill="#FFFFF3"/>
</g>
<g filter="url(#filter4_i_78_288)">
<path d="M193.295 333.796C193.797 333.505 193.947 333.43 194.104 333.376C197.284 332.291 201.2 334.379 203.766 332.125C206.317 329.885 204.322 326.081 205.019 323.053C205.702 320.088 208.632 319.207 211.5 319C216.332 320 216.683 324.005 217 326.5C218 334.376 214.574 332.665 225 333.376C228.5 333 231.574 336.083 231.436 338.971C231.301 341.805 229.529 343.551 226.995 344.376C225.774 344.774 224.33 344.769 223.033 344.596C218.537 343.998 216.97 346.001 217.469 350.296C217.72 352.454 217.489 354.631 216.332 356.58C214.827 359.115 212.73 360.384 209.679 359.781C206.833 359.218 205.457 357.397 204.964 354.678C204.411 351.621 206.244 347.923 203.822 345.565C201.592 343.394 198.047 345.088 195.145 344.52C190.404 343.592 189.38 338.652 193.295 333.796Z" fill="#FFFFF3"/>
</g>
<defs>
<filter id="filter0_i_78_288" x="0" y="0" width="284" height="291" filterUnits="userSpaceOnUse" color-interpolation-filters="sRGB">
<feFlood flood-opacity="0" result="BackgroundImageFix"/>
<feBlend mode="normal" in="SourceGraphic" in2="BackgroundImageFix" result="shape"/>
<feColorMatrix in="SourceAlpha" type="matrix" values="0 0 0 0 0 0 0 0 0 0 0 0 0 0 0 0 0 0 127 0" result="hardAlpha"/>
<feOffset dy="11"/>
<feGaussianBlur stdDeviation="3.5"/>
<feComposite in2="hardAlpha" operator="arithmetic" k2="-1" k3="1"/>
<feColorMatrix type="matrix" values="0 0 0 0 0 0 0 0 0 0 0 0 0 0 0 0 0 0 0.25 0"/>
<feBlend mode="normal" in2="shape" result="effect1_innerShadow_78_288"/>
</filter>
<filter id="filter1_i_78_288" x="0" y="0" width="284" height="288" filterUnits="userSpaceOnUse" color-interpolation-filters="sRGB">
<feFlood flood-opacity="0" result="BackgroundImageFix"/>
<feBlend mode="normal" in="SourceGraphic" in2="BackgroundImageFix" result="shape"/>
<feColorMatrix in="SourceAlpha" type="matrix" values="0 0 0 0 0 0 0 0 0 0 0 0 0 0 0 0 0 0 127 0" result="hardAlpha"/>
<feMorphology radius="1" operator="erode" in="SourceAlpha" result="effect1_innerShadow_78_288"/>
<feOffset dy="4"/>
<feGaussianBlur stdDeviation="2"/>
<feComposite in2="hardAlpha" operator="arithmetic" k2="-1" k3="1"/>
<feColorMatrix type="matrix" values="0 0 0 0 0 0 0 0 0 0 0 0 0 0 0 0 0 0 0.25 0"/>
<feBlend mode="normal" in2="shape" result="effect1_innerShadow_78_288"/>
</filter>
<filter id="filter2_i_78_288" x="109.827" y="318.969" width="75.6318" height="54.5409" filterUnits="userSpaceOnUse" color-interpolation-filters="sRGB">
<feFlood flood-opacity="0" result="BackgroundImageFix"/>
<feBlend mode="normal" in="SourceGraphic" in2="BackgroundImageFix" result="shape"/>
<feColorMatrix in="SourceAlpha" type="matrix" values="0 0 0 0 0 0 0 0 0 0 0 0 0 0 0 0 0 0 127 0" result="hardAlpha"/>
<feOffset dy="6"/>
<feGaussianBlur stdDeviation="3.5"/>
<feComposite in2="hardAlpha" operator="arithmetic" k2="-1" k3="1"/>
<feColorMatrix type="matrix" values="0 0 0 0 0 0 0 0 0 0 0 0 0 0 0 0 0 0 0.25 0"/>
<feBlend mode="normal" in2="shape" result="effect1_innerShadow_78_288"/>
</filter>
<filter id="filter3_i_78_288" x="53" y="302" width="51.7793" height="71.5515" filterUnits="userSpaceOnUse" color-interpolation-filters="sRGB">
<feFlood flood-opacity="0" result="BackgroundImageFix"/>
<feBlend mode="normal" in="SourceGraphic" in2="BackgroundImageFix" result="shape"/>
<feColorMatrix in="SourceAlpha" type="matrix" values="0 0 0 0 0 0 0 0 0 0 0 0 0 0 0 0 0 0 127 0" result="hardAlpha"/>
<feOffset dy="6"/>
<feGaussianBlur stdDeviation="3.5"/>
<feComposite in2="hardAlpha" operator="arithmetic" k2="-1" k3="1"/>
<feColorMatrix type="matrix" values="0 0 0 0 0 0 0 0 0 0 0 0 0 0 0 0 0 0 0.25 0"/>
<feBlend mode="normal" in2="shape" result="effect1_innerShadow_78_288"/>
</filter>
<filter id="filter4_i_78_288" x="190.885" y="319" width="40.5553" height="46.9294" filterUnits="userSpaceOnUse" color-interpolation-filters="sRGB">
<feFlood flood-opacity="0" result="BackgroundImageFix"/>
<feBlend mode="normal" in="SourceGraphic" in2="BackgroundImageFix" result="shape"/>
<feColorMatrix in="SourceAlpha" type="matrix" values="0 0 0 0 0 0 0 0 0 0 0 0 0 0 0 0 0 0 127 0" result="hardAlpha"/>
<feOffset dy="6"/>
<feGaussianBlur stdDeviation="3.5"/>
<feComposite in2="hardAlpha" operator="arithmetic" k2="-1" k3="1"/>
<feColorMatrix type="matrix" values="0 0 0 0 0 0 0 0 0 0 0 0 0 0 0 0 0 0 0.25 0"/>
<feBlend mode="normal" in2="shape" result="effect1_innerShadow_78_288"/>
</filter>
</defs>
</svg>
